<svg viewBox="0 0 700 283" xmlns="http://www.w3.org/2000/svg"><path d="m11.65 6.23a6.23 6.23 0 0 1 -1.4 4.33 5 5 0 0 1 -3.95 1.55 5.07 5.07 0 0 1 -4-1.54 6.28 6.28 0 0 1 -1.3-4.36 6.18 6.18 0 0 1 1.34-4.34 5.15 5.15 0 0 1 4-1.52 5.06 5.06 0 0 1 3.94 1.54 6.28 6.28 0 0 1 1.37 4.34zm-8.72 0a5.13 5.13 0 0 0 .85 3.2 3 3 0 0 0 2.52 1.09 3 3 0 0 0 2.52-1.08 5.17 5.17 0 0 0 .84-3.21 5.14 5.14 0 0 0 -.84-3.23 3 3 0 0 0 -2.5-1 3 3 0 0 0 -2.53 1 5 5 0 0 0 -.86 3.23z" fill="#71c492"/><path d="m18.29 12.11a3 3 0 0 1 -2.55-1.18h-.11c.08.73.11 1.17.11 1.33v3.54h-1.83v-12.49h1.48c0 .16.13.55.26 1.16h.09a2.86 2.86 0 0 1 2.58-1.31 3 3 0 0 1 2.52 1.17 5.3 5.3 0 0 1 .9 3.29 5.22 5.22 0 0 1 -.92 3.3 3 3 0 0 1 -2.53 1.19zm-.45-7.45a1.88 1.88 0 0 0 -1.59.64 3.27 3.27 0 0 0 -.51 2v.28a4.05 4.05 0 0 0 .5 2.28 1.88 1.88 0 0 0 1.64.71 1.65 1.65 0 0 0 1.46-.78 4 4 0 0 0 .52-2.23 3.91 3.91 0 0 0 -.51-2.2 1.73 1.73 0 0 0 -1.51-.7z" fill="#71c492"/><path d="m27.09 10.62a4.52 4.52 0 0 0 1.35-.21v1.39a3.82 3.82 0 0 1 -.79.22 5.36 5.36 0 0 1 -1 .09c-1.74 0-2.61-.92-2.61-2.75v-4.66h-1.17v-.81l1.26-.67.63-1.83h1.13v1.92h2.46v1.39h-2.46v4.63a1.3 1.3 0 0 0 .33 1 1.2 1.2 0 0 0 .87.29z" fill="#71c492"/><path d="m30.05 1a1 1 0 0 1 .27-.75 1 1 0 0 1 .77-.25 1 1 0 0 1 .76.27 1 1 0 0 1 .27.75 1 1 0 0 1 -.27.74 1 1 0 0 1 -.76.27 1 1 0 0 1 -.77-.27 1 1 0 0 1 -.27-.76zm1.95 11h-1.84v-8.69h1.84z" fill="#71c492"/><path d="m42.29 7.62a4.68 4.68 0 0 1 -1.09 3.3 3.89 3.89 0 0 1 -3 1.19 4.08 4.08 0 0 1 -2.2-.55 3.58 3.58 0 0 1 -1.39-1.56 5.37 5.37 0 0 1 -.5-2.37 4.67 4.67 0 0 1 1.08-3.28 3.9 3.9 0 0 1 3-1.18 3.82 3.82 0 0 1 3 1.2 4.72 4.72 0 0 1 1.1 3.25zm-6.29 0c0 2 .74 3 2.21 3s2.19-1 2.19-3-.74-3-2.2-3a1.88 1.88 0 0 0 -1.68.76 3.87 3.87 0 0 0 -.52 2.24z" fill="#71c492"/><path d="m52 12h-1.84v-5.36a2.3 2.3 0 0 0 -.41-1.49 1.53 1.53 0 0 0 -1.27-.49 2.06 2.06 0 0 0 -1.71.68 3.81 3.81 0 0 0 -.54 2.31v4.35h-1.83v-8.69h1.44l.25 1.14h.1a2.55 2.55 0 0 1 1.11-1 3.77 3.77 0 0 1 1.59-.33q3.11.04 3.11 3.2z" fill="#71c492"/><path d="m63.49 12h-1.83v-7.42q0-1.32.06-2.1c-.12.13-.27.27-.44.42l-1.76 1.44-.92-1.17 3.4-2.64h1.53z" fill="#71c492"/><path d="m67.57 4.3a1 1 0 0 1 1.16-1.18 1.12 1.12 0 0 1 .87.32 1.24 1.24 0 0 1 .29.86 1.24 1.24 0 0 1 -.3.88 1.3 1.3 0 0 1 -1.72 0 1.26 1.26 0 0 1 -.3-.88zm0 6.68a1.2 1.2 0 0 1 .3-.88 1.14 1.14 0 0 1 .86-.3 1.1 1.1 0 0 1 .86.31 1.21 1.21 0 0 1 .3.87 1.25 1.25 0 0 1 -.3.88 1.14 1.14 0 0 1 -.86.32 1.11 1.11 0 0 1 -.86-.32 1.24 1.24 0 0 1 -.3-.86z" fill="#71c492"/><path d="m0 25.36h97.71" fill="none" stroke="#71c492" stroke-miterlimit="10" stroke-width="2"/><path d="m93.73 28.75 3.39-3.39-3.39-3.4h2.88l3.39 3.4-3.39 3.39z" fill="#71c492"/><path d="m12.11 47.23a6.23 6.23 0 0 1 -1.39 4.33 5.06 5.06 0 0 1 -4 1.55 5.05 5.05 0 0 1 -4-1.54 6.24 6.24 0 0 1 -1.39-4.36 6.23 6.23 0 0 1 1.47-4.34 5.16 5.16 0 0 1 4-1.52 5 5 0 0 1 3.93 1.54 6.24 6.24 0 0 1 1.38 4.34zm-8.72 0a5.13 5.13 0 0 0 .86 3.2 3 3 0 0 0 2.52 1.09 3 3 0 0 0 2.51-1.08 5.1 5.1 0 0 0 .85-3.21 5.14 5.14 0 0 0 -.84-3.23 3 3 0 0 0 -2.5-1 3.05 3.05 0 0 0 -2.54 1 5.08 5.08 0 0 0 -.86 3.23z" fill="#e27179"/><path d="m18.75 53.11a3 3 0 0 1 -2.54-1.18h-.11c.07.73.11 1.17.11 1.33v3.54h-1.84v-12.49h1.49c0 .16.12.55.25 1.16h.1a2.86 2.86 0 0 1 2.58-1.31 3 3 0 0 1 2.51 1.17 5.23 5.23 0 0 1 .91 3.29 5.29 5.29 0 0 1 -.92 3.3 3 3 0 0 1 -2.54 1.19zm-.44-7.45a1.91 1.91 0 0 0 -1.6.64 3.34 3.34 0 0 0 -.5 2v.28a4 4 0 0 0 .5 2.28 1.85 1.85 0 0 0 1.63.71 1.66 1.66 0 0 0 1.47-.78 4.07 4.07 0 0 0 .51-2.23 3.91 3.91 0 0 0 -.51-2.2 1.71 1.71 0 0 0 -1.5-.7z" fill="#e27179"/><path d="m27.56 51.62a4.46 4.46 0 0 0 1.34-.21v1.39a3.54 3.54 0 0 1 -.78.22 5.47 5.47 0 0 1 -1 .09c-1.74 0-2.61-.92-2.61-2.75v-4.66h-1.18v-.81l1.27-.67.62-1.83h1.14v1.92h2.46v1.39h-2.46v4.63a1.3 1.3 0 0 0 .33 1 1.2 1.2 0 0 0 .87.29z" fill="#e27179"/><path d="m30.52 42a1 1 0 0 1 .27-.75 1 1 0 0 1 .77-.27 1 1 0 0 1 .75.27 1.16 1.16 0 0 1 0 1.49 1 1 0 0 1 -.75.27 1 1 0 0 1 -.77-.27 1 1 0 0 1 -.27-.74zm1.94 11h-1.83v-8.69h1.83z" fill="#e27179"/><path d="m42.75 48.62a4.72 4.72 0 0 1 -1.08 3.3 3.91 3.91 0 0 1 -3 1.19 4.11 4.11 0 0 1 -2.14-.55 3.64 3.64 0 0 1 -1.46-1.56 5.37 5.37 0 0 1 -.5-2.37 4.67 4.67 0 0 1 1.08-3.28 3.9 3.9 0 0 1 3-1.18 3.82 3.82 0 0 1 3 1.2 4.67 4.67 0 0 1 1.1 3.25zm-6.29 0c0 2 .74 3 2.22 3s2.18-1 2.18-3-.73-3-2.2-3a1.89 1.89 0 0 0 -1.68.76 4 4 0 0 0 -.52 2.24z" fill="#e27179"/><path d="m52.46 53h-1.84v-5.36a2.31 2.31 0 0 0 -.4-1.49 1.56 1.56 0 0 0 -1.28-.49 2.05 2.05 0 0 0 -1.7.68 3.81 3.81 0 0 0 -.54 2.31v4.35h-1.84v-8.69h1.44l.26 1.14h.09a2.55 2.55 0 0 1 1.11-1 3.78 3.78 0 0 1 1.6-.33q3.11 0 3.1 3.16z" fill="#e27179"/><path d="m66.31 53h-7.74v-1.44l2.94-3a24.67 24.67 0 0 0 1.73-1.89 4.61 4.61 0 0 0 .62-1.05 2.86 2.86 0 0 0 .2-1.06 1.63 1.63 0 0 0 -.47-1.22 1.79 1.79 0 0 0 -1.28-.44 3.45 3.45 0 0 0 -1.27.24 6 6 0 0 0 -1.42.87l-1-1.21a6.59 6.59 0 0 1 1.85-1.14 5.52 5.52 0 0 1 1.91-.33 3.74 3.74 0 0 1 2.62.87 2.81 2.81 0 0 1 1 2.24 3.88 3.88 0 0 1 -.28 1.47 5.9 5.9 0 0 1 -.85 1.43 19.54 19.54 0 0 1 -1.91 2l-2 1.92v.08h5.42z" fill="#e27179"/><path d="m68 45.3a1 1 0 0 1 1.15-1.18 1.16 1.16 0 0 1 .88.32 1.41 1.41 0 0 1 0 1.74 1.09 1.09 0 0 1 -.86.33 1.14 1.14 0 0 1 -.86-.32 1.26 1.26 0 0 1 -.31-.89zm0 6.7a1.2 1.2 0 0 1 .29-.88 1.17 1.17 0 0 1 .86-.3 1.14 1.14 0 0 1 .87.31 1.21 1.21 0 0 1 .3.87 1.26 1.26 0 0 1 -.31.88 1.12 1.12 0 0 1 -.86.32 1.14 1.14 0 0 1 -.86-.32 1.23 1.23 0 0 1 -.29-.88z" fill="#e27179"/><path d="m.46 66.36h97.72" fill="none" stroke="#e27179" stroke-miterlimit="10" stroke-width="2"/><path d="m94.19 69.75 3.4-3.39-3.4-3.39h2.88l3.4 3.39-3.4 3.39z" fill="#e27179"/><path d="m234.55 78.5h35.45v52h-115v-52h36.79" fill="none" stroke="#707070" stroke-miterlimit="10" stroke-width=".5"/><path d="m370 78.5h115v52h-115z" fill="none" stroke="#707070" stroke-miterlimit="10" stroke-width=".5"/><path d="m658.35 78.5h41.65v52h-115v-52h37.49" fill="none" stroke="#707070" stroke-miterlimit="10" stroke-width=".5"/><path d="m204.76 109.1-1.14-3.17h-4.37l-1.11 3.17h-2l4.27-11.47h2l4.28 11.47zm-1.63-4.78-1.07-3.11q-.12-.31-.33-1c-.13-.45-.23-.77-.28-1a17.59 17.59 0 0 1 -.62 2.1l-1 3z" fill="#707070"/><path d="m215.35 106a2.89 2.89 0 0 1 -1.1 2.39 4.86 4.86 0 0 1 -3 .86 7.25 7.25 0 0 1 -3.17-.6v-1.76a8.77 8.77 0 0 0 1.66.57 6.55 6.55 0 0 0 1.63.22 2.55 2.55 0 0 0 1.64-.43 1.45 1.45 0 0 0 0-2.21 7.24 7.24 0 0 0 -2-1.06 5.3 5.3 0 0 1 -2.2-1.44 3.08 3.08 0 0 1 -.64-2 2.76 2.76 0 0 1 1-2.25 4.27 4.27 0 0 1 2.73-.82 8.06 8.06 0 0 1 3.27.72l-.6 1.52a7.24 7.24 0 0 0 -2.72-.64 2.09 2.09 0 0 0 -1.37.4 1.3 1.3 0 0 0 -.47 1 1.41 1.41 0 0 0 .19.76 1.88 1.88 0 0 0 .62.6 9.34 9.34 0 0 0 1.54.74 8.61 8.61 0 0 1 1.85 1 2.94 2.94 0 0 1 .86 1 3.13 3.13 0 0 1 .28 1.43z" fill="#707070"/><path d="m226.3 109.1h-1.83v-7.38c0-.88 0-1.58.06-2.09l-.44.41-1.76 1.44-.92-1.16 3.36-2.64h1.53z" fill="#707070"/><path d="m307.82 78.1h-1.82v-5.31a2.33 2.33 0 0 0 -.41-1.5 1.53 1.53 0 0 0 -1.27-.49 2 2 0 0 0 -1.7.69 3.84 3.84 0 0 0 -.55 2.32v4.29h-1.83v-12.16h1.83v3.06a14.92 14.92 0 0 1 -.09 1.58h.12a2.63 2.63 0 0 1 1-1 3.51 3.51 0 0 1 1.56-.34c2.09 0 3.14 1.06 3.14 3.16z" fill="#71c492"/><path d="m318 73.76a4.77 4.77 0 0 1 -1.09 3.31 3.88 3.88 0 0 1 -3 1.18 4.17 4.17 0 0 1 -2.14-.54 3.63 3.63 0 0 1 -1.43-1.57 5.31 5.31 0 0 1 -.5-2.38 4.73 4.73 0 0 1 1.07-3.28 3.91 3.91 0 0 1 3-1.18 3.79 3.79 0 0 1 3 1.21 4.65 4.65 0 0 1 1.09 3.25zm-6.29 0c0 2 .73 3 2.21 3s2.19-1 2.19-3-.74-3-2.21-3a1.87 1.87 0 0 0 -1.67.77 3.85 3.85 0 0 0 -.53 2.23z" fill="#71c492"/><path d="m324.41 78.25a3 3 0 0 1 -2.55-1.18h-.11c.08.73.11 1.18.11 1.33v3.54h-1.86v-12.48h1.48c0 .16.13.54.26 1.15h.09a2.9 2.9 0 0 1 2.58-1.31 3 3 0 0 1 2.59 1.17 6.47 6.47 0 0 1 0 6.6 3 3 0 0 1 -2.59 1.18zm-.41-7.45a1.9 1.9 0 0 0 -1.6.64 3.3 3.3 0 0 0 -.51 2v.27a4.09 4.09 0 0 0 .5 2.29 1.88 1.88 0 0 0 1.64.7 1.67 1.67 0 0 0 1.47-.78 4.05 4.05 0 0 0 .51-2.22 3.89 3.89 0 0 0 -.51-2.2 1.7 1.7 0 0 0 -1.5-.7z" fill="#71c492"/><path d="m338.93 78.1h-1.83v-7.38c0-.88 0-1.58.06-2.09l-.44.41-1.72 1.44-1-1.16 3.36-2.64h1.53z" fill="#71c492"/><path d="m522.82 78.1h-1.82v-5.31a2.33 2.33 0 0 0 -.41-1.5 1.53 1.53 0 0 0 -1.27-.49 2 2 0 0 0 -1.7.69 3.84 3.84 0 0 0 -.55 2.32v4.29h-1.83v-12.16h1.83v3.06a14.92 14.92 0 0 1 -.09 1.58h.12a2.63 2.63 0 0 1 1-1 3.51 3.51 0 0 1 1.56-.34c2.09 0 3.14 1.06 3.14 3.16z" fill="#71c492"/><path d="m533 73.76a4.77 4.77 0 0 1 -1.09 3.31 3.88 3.88 0 0 1 -3 1.18 4.17 4.17 0 0 1 -2.14-.54 3.63 3.63 0 0 1 -1.43-1.57 5.31 5.31 0 0 1 -.5-2.38 4.73 4.73 0 0 1 1.07-3.28 3.91 3.91 0 0 1 3-1.18 3.79 3.79 0 0 1 3 1.21 4.65 4.65 0 0 1 1.09 3.25zm-6.29 0c0 2 .73 3 2.21 3s2.19-1 2.19-3-.74-3-2.21-3a1.87 1.87 0 0 0 -1.67.77 3.85 3.85 0 0 0 -.53 2.23z" fill="#71c492"/><path d="m539.41 78.25a3 3 0 0 1 -2.55-1.18h-.11c.08.73.11 1.18.11 1.33v3.54h-1.86v-12.48h1.48c0 .16.13.54.26 1.15h.09a2.9 2.9 0 0 1 2.58-1.31 3 3 0 0 1 2.59 1.17 6.47 6.47 0 0 1 0 6.6 3 3 0 0 1 -2.59 1.18zm-.41-7.45a1.9 1.9 0 0 0 -1.6.64 3.3 3.3 0 0 0 -.51 2v.27a4.09 4.09 0 0 0 .5 2.29 1.88 1.88 0 0 0 1.64.7 1.67 1.67 0 0 0 1.47-.78 4.05 4.05 0 0 0 .51-2.22 3.89 3.89 0 0 0 -.51-2.2 1.7 1.7 0 0 0 -1.5-.7z" fill="#71c492"/><path d="m556.29 78.1h-7.75v-1.39l3-3a24.23 24.23 0 0 0 1.73-1.9 4.55 4.55 0 0 0 .62-1 2.84 2.84 0 0 0 .2-1 1.6 1.6 0 0 0 -.47-1.22 1.77 1.77 0 0 0 -1.28-.45 3.45 3.45 0 0 0 -1.27.24 6.19 6.19 0 0 0 -1.42.88l-1-1.21a6.15 6.15 0 0 1 1.85-1.14 5.3 5.3 0 0 1 1.91-.34 3.81 3.81 0 0 1 2.56.83 2.82 2.82 0 0 1 1 2.24 4 4 0 0 1 -.28 1.47 5.9 5.9 0 0 1 -.85 1.43 18.55 18.55 0 0 1 -1.91 2l-2 1.92v.08h5.43z" fill="#71c492"/><g fill="#e27179"><path d="m307.82 244.1h-1.82v-5.31a2.33 2.33 0 0 0 -.41-1.5 1.53 1.53 0 0 0 -1.27-.49 2 2 0 0 0 -1.7.69 3.84 3.84 0 0 0 -.55 2.32v4.29h-1.83v-12.16h1.83v3.06a14.92 14.92 0 0 1 -.09 1.58h.12a2.63 2.63 0 0 1 1-1 3.51 3.51 0 0 1 1.56-.34c2.09 0 3.14 1.06 3.14 3.16z"/><path d="m318 239.76a4.75 4.75 0 0 1 -1.09 3.31 3.88 3.88 0 0 1 -3 1.18 4.17 4.17 0 0 1 -2.14-.54 3.63 3.63 0 0 1 -1.43-1.57 5.28 5.28 0 0 1 -.5-2.38 4.73 4.73 0 0 1 1.07-3.28 3.91 3.91 0 0 1 3-1.18 3.79 3.79 0 0 1 3 1.21 4.65 4.65 0 0 1 1.09 3.25zm-6.29 0c0 2 .73 3 2.21 3s2.19-1 2.19-3-.74-3-2.21-3a1.87 1.87 0 0 0 -1.67.77 3.85 3.85 0 0 0 -.53 2.23z"/><path d="m324.41 244.25a3 3 0 0 1 -2.55-1.18h-.11c.08.73.11 1.18.11 1.33v3.54h-1.86v-12.48h1.48c0 .16.13.54.26 1.15h.09a2.9 2.9 0 0 1 2.58-1.31 3 3 0 0 1 2.52 1.17 6.47 6.47 0 0 1 0 6.6 3 3 0 0 1 -2.52 1.18zm-.41-7.45a1.9 1.9 0 0 0 -1.6.64 3.3 3.3 0 0 0 -.51 2.05v.27a4.09 4.09 0 0 0 .5 2.29 1.88 1.88 0 0 0 1.64.7 1.67 1.67 0 0 0 1.47-.78 4.05 4.05 0 0 0 .51-2.22 3.89 3.89 0 0 0 -.51-2.2 1.7 1.7 0 0 0 -1.5-.75z"/><path d="m341.29 244.1h-7.75v-1.39l2.95-3a24.23 24.23 0 0 0 1.73-1.9 4.55 4.55 0 0 0 .62-1 2.84 2.84 0 0 0 .2-1.05 1.6 1.6 0 0 0 -.47-1.22 1.77 1.77 0 0 0 -1.28-.45 3.45 3.45 0 0 0 -1.27.24 6.19 6.19 0 0 0 -1.42.88l-1-1.21a6.15 6.15 0 0 1 1.85-1.14 5.26 5.26 0 0 1 1.91-.34 3.81 3.81 0 0 1 2.56.83 2.82 2.82 0 0 1 1 2.24 4 4 0 0 1 -.28 1.47 5.9 5.9 0 0 1 -.85 1.43 18.55 18.55 0 0 1 -1.91 2l-2 1.92v.08h5.43z"/><path d="m522.82 244.1h-1.82v-5.31a2.33 2.33 0 0 0 -.41-1.5 1.53 1.53 0 0 0 -1.27-.49 2 2 0 0 0 -1.7.69 3.84 3.84 0 0 0 -.55 2.32v4.29h-1.83v-12.16h1.83v3.06a14.92 14.92 0 0 1 -.09 1.58h.12a2.63 2.63 0 0 1 1-1 3.51 3.51 0 0 1 1.56-.34c2.09 0 3.14 1.06 3.14 3.16z"/><path d="m533 239.76a4.75 4.75 0 0 1 -1.09 3.31 3.88 3.88 0 0 1 -3 1.18 4.17 4.17 0 0 1 -2.14-.54 3.63 3.63 0 0 1 -1.43-1.57 5.28 5.28 0 0 1 -.5-2.38 4.73 4.73 0 0 1 1.07-3.28 3.91 3.91 0 0 1 3-1.18 3.79 3.79 0 0 1 3 1.21 4.65 4.65 0 0 1 1.09 3.25zm-6.29 0c0 2 .73 3 2.21 3s2.19-1 2.19-3-.74-3-2.21-3a1.87 1.87 0 0 0 -1.67.77 3.85 3.85 0 0 0 -.53 2.23z"/><path d="m539.41 244.25a3 3 0 0 1 -2.55-1.18h-.11c.08.73.11 1.18.11 1.33v3.54h-1.86v-12.48h1.48c0 .16.13.54.26 1.15h.09a2.9 2.9 0 0 1 2.58-1.31 3 3 0 0 1 2.52 1.17 6.47 6.47 0 0 1 0 6.6 3 3 0 0 1 -2.52 1.18zm-.41-7.45a1.9 1.9 0 0 0 -1.6.64 3.3 3.3 0 0 0 -.51 2.05v.27a4.09 4.09 0 0 0 .5 2.29 1.88 1.88 0 0 0 1.64.7 1.67 1.67 0 0 0 1.47-.78 4.05 4.05 0 0 0 .51-2.22 3.89 3.89 0 0 0 -.51-2.2 1.7 1.7 0 0 0 -1.5-.75z"/><path d="m555.86 235.3a2.6 2.6 0 0 1 -.64 1.81 3.13 3.13 0 0 1 -1.78 1v.06a3.42 3.42 0 0 1 2.06.86 2.45 2.45 0 0 1 .69 1.82 3 3 0 0 1 -1.16 2.54 5.32 5.32 0 0 1 -3.31.89 7.5 7.5 0 0 1 -3.21-.61v-1.67a7.45 7.45 0 0 0 1.54.56 6.65 6.65 0 0 0 1.56.19 3.3 3.3 0 0 0 2-.49 1.76 1.76 0 0 0 .65-1.52 1.47 1.47 0 0 0 -.72-1.35 4.74 4.74 0 0 0 -2.28-.43h-1v-1.49h1c1.83 0 2.74-.63 2.74-1.89a1.38 1.38 0 0 0 -.48-1.13 2.14 2.14 0 0 0 -1.41-.4 4.39 4.39 0 0 0 -1.25.18 6.53 6.53 0 0 0 -1.42.72l-.9-1.28a6 6 0 0 1 3.65-1.16 4.4 4.4 0 0 1 2.7.74 2.46 2.46 0 0 1 .97 2.05z"/><path d="m665.73 185.1h-1.85v-5.31a2.34 2.34 0 0 0 -.4-1.5 1.55 1.55 0 0 0 -1.28-.49 2 2 0 0 0 -1.7.69 3.84 3.84 0 0 0 -.54 2.32v4.29h-1.84v-12.16h1.88v3.06a14.92 14.92 0 0 1 -.09 1.58h.09a2.59 2.59 0 0 1 1-1 3.45 3.45 0 0 1 1.56-.34c2.09 0 3.14 1.06 3.14 3.16z"/><path d="m675.89 180.76a4.75 4.75 0 0 1 -1.08 3.31 3.92 3.92 0 0 1 -3 1.18 4.2 4.2 0 0 1 -2.14-.54 3.69 3.69 0 0 1 -1.43-1.57 5.41 5.41 0 0 1 -.5-2.38 4.68 4.68 0 0 1 1.08-3.28 3.9 3.9 0 0 1 3-1.18 3.79 3.79 0 0 1 3 1.21 4.65 4.65 0 0 1 1.07 3.25zm-6.29 0c0 2 .74 3 2.21 3s2.19-1 2.19-3-.73-3-2.2-3a1.9 1.9 0 0 0 -1.68.77 3.94 3.94 0 0 0 -.52 2.23z"/><path d="m682.32 185.25a3 3 0 0 1 -2.55-1.18h-.11c.07.73.11 1.18.11 1.33v3.54h-1.84v-12.48h1.49c0 .16.13.54.26 1.15h.09a2.88 2.88 0 0 1 2.58-1.31 3 3 0 0 1 2.52 1.17 6.44 6.44 0 0 1 0 6.6 3 3 0 0 1 -2.55 1.18zm-.45-7.45a1.91 1.91 0 0 0 -1.6.64 3.37 3.37 0 0 0 -.5 2.05v.27a4.09 4.09 0 0 0 .5 2.29 1.86 1.86 0 0 0 1.63.7 1.65 1.65 0 0 0 1.47-.78 4 4 0 0 0 .52-2.22 3.89 3.89 0 0 0 -.51-2.2 1.72 1.72 0 0 0 -1.51-.75z"/><path d="m699.6 182.61h-1.54v2.49h-1.79v-2.49h-5.22v-1.42l5.22-7.55h1.79v7.44h1.54zm-3.33-1.53v-2.87c0-1 0-1.85.08-2.5h-.06a10 10 0 0 1 -.69 1.25l-2.84 4.12z"/><path d="m163.82 185.1h-1.82v-5.31a2.33 2.33 0 0 0 -.41-1.5 1.53 1.53 0 0 0 -1.27-.49 2 2 0 0 0 -1.7.69 3.84 3.84 0 0 0 -.55 2.32v4.29h-1.83v-12.16h1.83v3.06a14.92 14.92 0 0 1 -.09 1.58h.12a2.63 2.63 0 0 1 1-1 3.51 3.51 0 0 1 1.56-.34c2.09 0 3.14 1.06 3.14 3.16z"/><path d="m174 180.76a4.75 4.75 0 0 1 -1.09 3.31 3.88 3.88 0 0 1 -3 1.18 4.17 4.17 0 0 1 -2.14-.54 3.63 3.63 0 0 1 -1.43-1.57 5.28 5.28 0 0 1 -.5-2.38 4.73 4.73 0 0 1 1.07-3.28 3.91 3.91 0 0 1 3-1.18 3.79 3.79 0 0 1 3 1.21 4.65 4.65 0 0 1 1.09 3.25zm-6.29 0c0 2 .73 3 2.21 3s2.19-1 2.19-3-.74-3-2.21-3a1.87 1.87 0 0 0 -1.67.77 3.85 3.85 0 0 0 -.53 2.23z"/><path d="m180.41 185.25a3 3 0 0 1 -2.55-1.18h-.11c.08.73.11 1.18.11 1.33v3.54h-1.86v-12.48h1.48c0 .16.13.54.26 1.15h.09a2.9 2.9 0 0 1 2.58-1.31 3 3 0 0 1 2.52 1.17 6.47 6.47 0 0 1 0 6.6 3 3 0 0 1 -2.52 1.18zm-.41-7.45a1.9 1.9 0 0 0 -1.6.64 3.3 3.3 0 0 0 -.51 2.05v.27a4.09 4.09 0 0 0 .5 2.29 1.88 1.88 0 0 0 1.64.7 1.67 1.67 0 0 0 1.47-.78 4.05 4.05 0 0 0 .51-2.22 3.89 3.89 0 0 0 -.51-2.2 1.7 1.7 0 0 0 -1.5-.75z"/><path d="m194.93 185.1h-1.83v-7.38c0-.88 0-1.58.06-2.09l-.44.41-1.72 1.44-.93-1.16 3.36-2.64h1.53z"/></g><path d="m419.76 109.1-1.14-3.17h-4.37l-1.11 3.17h-2l4.27-11.47h2l4.28 11.47zm-1.63-4.78-1.07-3.11q-.12-.31-.33-1c-.13-.45-.23-.77-.28-1a17.59 17.59 0 0 1 -.62 2.1l-1 3z" fill="#707070"/><path d="m430.35 106a2.89 2.89 0 0 1 -1.1 2.39 4.86 4.86 0 0 1 -3 .86 7.25 7.25 0 0 1 -3.17-.6v-1.76a8.77 8.77 0 0 0 1.66.57 6.55 6.55 0 0 0 1.63.22 2.55 2.55 0 0 0 1.64-.43 1.45 1.45 0 0 0 0-2.21 7.24 7.24 0 0 0 -2-1.06 5.3 5.3 0 0 1 -2.2-1.44 3.08 3.08 0 0 1 -.64-2 2.76 2.76 0 0 1 1-2.25 4.27 4.27 0 0 1 2.73-.82 8.06 8.06 0 0 1 3.27.72l-.6 1.52a7.24 7.24 0 0 0 -2.72-.64 2.09 2.09 0 0 0 -1.37.4 1.3 1.3 0 0 0 -.47 1 1.41 1.41 0 0 0 .19.76 1.88 1.88 0 0 0 .62.6 9.34 9.34 0 0 0 1.54.74 8.61 8.61 0 0 1 1.85 1 2.94 2.94 0 0 1 .86 1 3.13 3.13 0 0 1 .28 1.43z" fill="#707070"/><path d="m443.65 109.1h-7.74v-1.39l2.95-3c.87-.89 1.44-1.53 1.73-1.9a4.55 4.55 0 0 0 .62-1 2.84 2.84 0 0 0 .19-1 1.59 1.59 0 0 0 -.46-1.22 1.78 1.78 0 0 0 -1.29-.45 3.49 3.49 0 0 0 -1.27.24 6.16 6.16 0 0 0 -1.41.88l-.97-1.26a6.31 6.31 0 0 1 1.86-1.14 5.22 5.22 0 0 1 1.91-.34 3.78 3.78 0 0 1 2.55.83 2.82 2.82 0 0 1 1 2.24 4 4 0 0 1 -.27 1.47 6.24 6.24 0 0 1 -.85 1.43 19.62 19.62 0 0 1 -1.91 2l-2 1.92v.08h5.42z" fill="#707070"/><path d="m634.76 109.1-1.14-3.17h-4.37l-1.11 3.17h-2l4.27-11.47h2l4.28 11.47zm-1.63-4.78-1.07-3.11q-.12-.31-.33-1c-.13-.45-.23-.77-.28-1a17.59 17.59 0 0 1 -.62 2.1l-1 3z" fill="#707070"/><path d="m645.35 106a2.89 2.89 0 0 1 -1.1 2.39 4.86 4.86 0 0 1 -3 .86 7.25 7.25 0 0 1 -3.17-.6v-1.76a8.77 8.77 0 0 0 1.66.57 6.55 6.55 0 0 0 1.63.22 2.55 2.55 0 0 0 1.64-.43 1.45 1.45 0 0 0 0-2.21 7.24 7.24 0 0 0 -2-1.06 5.3 5.3 0 0 1 -2.2-1.44 3.08 3.08 0 0 1 -.64-2 2.76 2.76 0 0 1 1-2.25 4.27 4.27 0 0 1 2.73-.82 8.06 8.06 0 0 1 3.27.72l-.6 1.52a7.24 7.24 0 0 0 -2.72-.64 2.09 2.09 0 0 0 -1.37.4 1.3 1.3 0 0 0 -.47 1 1.41 1.41 0 0 0 .19.76 1.88 1.88 0 0 0 .62.6 9.34 9.34 0 0 0 1.54.74 8.61 8.61 0 0 1 1.85 1 2.94 2.94 0 0 1 .86 1 3.13 3.13 0 0 1 .28 1.43z" fill="#707070"/><path d="m658.22 100.3a2.66 2.66 0 0 1 -.63 1.81 3.13 3.13 0 0 1 -1.78 1v.06a3.44 3.44 0 0 1 2.06.86 2.45 2.45 0 0 1 .69 1.82 3 3 0 0 1 -1.16 2.54 5.33 5.33 0 0 1 -3.32.89 7.49 7.49 0 0 1 -3.2-.61v-1.67a7.25 7.25 0 0 0 1.54.56 6.65 6.65 0 0 0 1.56.19 3.3 3.3 0 0 0 2-.49 1.79 1.79 0 0 0 .65-1.52 1.47 1.47 0 0 0 -.72-1.35 4.76 4.76 0 0 0 -2.29-.43h-1v-1.49h1q2.73 0 2.73-1.89a1.37 1.37 0 0 0 -.47-1.13 2.14 2.14 0 0 0 -1.41-.4 4.34 4.34 0 0 0 -1.25.18 6.53 6.53 0 0 0 -1.42.72l-.9-1.28a6 6 0 0 1 3.65-1.16 4.35 4.35 0 0 1 2.69.74 2.44 2.44 0 0 1 .98 2.05z" fill="#707070"/><path d="m201.82 80a2.87 2.87 0 0 1 -1.11 2.39 4.81 4.81 0 0 1 -3 .86 7.3 7.3 0 0 1 -3.18-.6v-1.76a9 9 0 0 0 1.66.57 6.69 6.69 0 0 0 1.64.22 2.55 2.55 0 0 0 1.64-.43 1.36 1.36 0 0 0 .52-1.13 1.4 1.4 0 0 0 -.48-1.08 7.24 7.24 0 0 0 -2-1.06 5.24 5.24 0 0 1 -2.2-1.44 3.08 3.08 0 0 1 -.64-2 2.76 2.76 0 0 1 1-2.25 4.27 4.27 0 0 1 2.73-.82 8 8 0 0 1 3.26.72l-.59 1.52a7.24 7.24 0 0 0 -2.72-.64 2.09 2.09 0 0 0 -1.37.4 1.27 1.27 0 0 0 -.47 1 1.41 1.41 0 0 0 .19.76 1.94 1.94 0 0 0 .61.6 9.56 9.56 0 0 0 1.55.74 8.49 8.49 0 0 1 1.84 1 2.83 2.83 0 0 1 .86 1 3 3 0 0 1 .26 1.43z" fill="#707070"/><path d="m206.87 81.77a4.51 4.51 0 0 0 1.34-.21v1.38a3.65 3.65 0 0 1 -.79.22 5.36 5.36 0 0 1 -1 .09c-1.74 0-2.61-.91-2.61-2.75v-4.65h-1.18v-.85l1.26-.68.63-1.82h1.13v1.92h2.46v1.39h-2.46v4.62a1.29 1.29 0 0 0 .33 1 1.25 1.25 0 0 0 .89.34z" fill="#707070"/><path d="m215.52 83.1-.37-1.21h-.06a3.49 3.49 0 0 1 -1.26 1.11 4 4 0 0 1 -1.62.28 2.79 2.79 0 0 1 -2-.68 2.57 2.57 0 0 1 -.71-1.95 2.27 2.27 0 0 1 1-2 5.72 5.72 0 0 1 3-.75h1.49v-.46a1.77 1.77 0 0 0 -.38-1.24 1.56 1.56 0 0 0 -1.2-.41 4.18 4.18 0 0 0 -1.28.19 11.84 11.84 0 0 0 -1.17.46l-.59-1.31a6.7 6.7 0 0 1 1.54-.56 6.87 6.87 0 0 1 1.58-.19 3.73 3.73 0 0 1 2.51.62 2.81 2.81 0 0 1 .84 2.26v5.84zm-2.73-1.25a2.28 2.28 0 0 0 1.6-.56 2 2 0 0 0 .61-1.57v-.72h-1.11a3.86 3.86 0 0 0 -1.89.43 1.34 1.34 0 0 0 -.59 1.19 1.15 1.15 0 0 0 .35.89 1.46 1.46 0 0 0 1.03.34z" fill="#707070"/><path d="m223.67 74.3a4.51 4.51 0 0 1 .91.08l-.18 1.71a3.59 3.59 0 0 0 -.81-.09 2.36 2.36 0 0 0 -1.78.71 2.6 2.6 0 0 0 -.69 1.87v4.52h-1.83v-8.64h1.43l.28 1.54h.09a3.5 3.5 0 0 1 1.12-1.23 2.68 2.68 0 0 1 1.46-.47z" fill="#707070"/><path d="m229.86 81.77a4.51 4.51 0 0 0 1.34-.21v1.38a3.65 3.65 0 0 1 -.79.22 5.36 5.36 0 0 1 -1 .09c-1.74 0-2.61-.91-2.61-2.75v-4.65h-1.18v-.85l1.26-.68.63-1.82h1.13v1.92h2.46v1.39h-2.46v4.62a1.29 1.29 0 0 0 .33 1 1.25 1.25 0 0 0 .89.34z" fill="#707070"/><path d="m634.14 83.1h-6.46v-11.42h6.46v1.57h-4.6v3.11h4.31v1.57h-4.31v3.58h4.6z" fill="#707070"/><path d="m643.86 83.1h-1.86v-5.31a2.4 2.4 0 0 0 -.4-1.5 1.56 1.56 0 0 0 -1.28-.49 2 2 0 0 0 -1.71.69 3.85 3.85 0 0 0 -.53 2.3v4.31h-1.84v-8.64h1.44l.26 1.13h.09a2.53 2.53 0 0 1 1.11-1 3.63 3.63 0 0 1 1.59-.34c2.07 0 3.11 1.06 3.11 3.16z" fill="#707070"/><path d="m649.3 83.25a3 3 0 0 1 -2.52-1.17 5.23 5.23 0 0 1 -.91-3.29 5.32 5.32 0 0 1 .92-3.31 3.06 3.06 0 0 1 2.54-1.18 3 3 0 0 1 2.6 1.26h.07a10.69 10.69 0 0 1 -.13-1.47v-3.15h1.84v12.16h-1.44l-.27-1.1h-.08a2.94 2.94 0 0 1 -2.62 1.25zm.49-1.48a2 2 0 0 0 1.65-.64 3.28 3.28 0 0 0 .53-2.06v-.26a3.83 3.83 0 0 0 -.53-2.32 2 2 0 0 0 -1.66-.69 1.67 1.67 0 0 0 -1.49.79 5 5 0 0 0 0 4.43 1.72 1.72 0 0 0 1.5.75z" fill="#707070"/><path d="m585 231h115v52h-115z" fill="none" stroke="#707070" stroke-miterlimit="10" stroke-width=".5"/><path d="m634.76 261.6-1.14-3.17h-4.37l-1.11 3.17h-2l4.27-11.47h2l4.28 11.47zm-1.63-4.78-1.07-3.11q-.12-.32-.33-1c-.13-.44-.23-.77-.28-1a17.59 17.59 0 0 1 -.62 2.1l-1 3z" fill="#707070"/><path d="m645.35 258.5a2.89 2.89 0 0 1 -1.1 2.39 4.86 4.86 0 0 1 -3 .86 7.25 7.25 0 0 1 -3.17-.6v-1.76a8.77 8.77 0 0 0 1.66.57 6.55 6.55 0 0 0 1.63.22 2.55 2.55 0 0 0 1.64-.43 1.45 1.45 0 0 0 0-2.21 7.24 7.24 0 0 0 -2-1.06 5.3 5.3 0 0 1 -2.2-1.44 3.08 3.08 0 0 1 -.64-2 2.76 2.76 0 0 1 1-2.25 4.27 4.27 0 0 1 2.73-.82 8.06 8.06 0 0 1 3.27.72l-.6 1.52a7.24 7.24 0 0 0 -2.72-.64 2.09 2.09 0 0 0 -1.37.4 1.3 1.3 0 0 0 -.47 1 1.41 1.41 0 0 0 .19.76 1.88 1.88 0 0 0 .62.6 9.34 9.34 0 0 0 1.54.74 8.61 8.61 0 0 1 1.85 1 2.94 2.94 0 0 1 .86 1 3.13 3.13 0 0 1 .28 1.43z" fill="#707070"/><path d="m659.06 259.11h-1.54v2.49h-1.79v-2.49h-5.22v-1.42l5.22-7.55h1.79v7.44h1.54zm-3.33-1.53v-2.87c0-1 0-1.85.08-2.5h-.06a10 10 0 0 1 -.69 1.25l-2.84 4.12z" fill="#707070"/><path d="m370 230.5h115v52h-115z" fill="none" stroke="#707070" stroke-miterlimit="10" stroke-width=".5"/><path d="m419.76 261.1-1.14-3.17h-4.37l-1.11 3.17h-2l4.27-11.47h2l4.28 11.47zm-1.63-4.78-1.07-3.11q-.12-.32-.33-1c-.13-.44-.23-.77-.28-1a17.59 17.59 0 0 1 -.62 2.1l-1 3z" fill="#707070"/><path d="m430.35 258a2.89 2.89 0 0 1 -1.1 2.39 4.86 4.86 0 0 1 -3 .86 7.25 7.25 0 0 1 -3.17-.6v-1.76a8.77 8.77 0 0 0 1.66.57 6.55 6.55 0 0 0 1.63.22 2.55 2.55 0 0 0 1.64-.43 1.45 1.45 0 0 0 0-2.21 7.24 7.24 0 0 0 -2-1.06 5.3 5.3 0 0 1 -2.2-1.44 3.08 3.08 0 0 1 -.64-2 2.76 2.76 0 0 1 1-2.25 4.27 4.27 0 0 1 2.73-.82 8.06 8.06 0 0 1 3.27.72l-.6 1.52a7.24 7.24 0 0 0 -2.72-.64 2.09 2.09 0 0 0 -1.37.4 1.3 1.3 0 0 0 -.47 1 1.41 1.41 0 0 0 .19.76 1.88 1.88 0 0 0 .62.6 9.34 9.34 0 0 0 1.54.74 8.61 8.61 0 0 1 1.85 1 2.94 2.94 0 0 1 .86 1 3.13 3.13 0 0 1 .28 1.43z" fill="#707070"/><path d="m439.79 254a3.9 3.9 0 0 1 2.73.92 3.2 3.2 0 0 1 1 2.49 3.64 3.64 0 0 1 -1.15 2.86 4.71 4.71 0 0 1 -3.25 1 6.17 6.17 0 0 1 -3-.61v-1.66a5.48 5.48 0 0 0 1.46.56 6.51 6.51 0 0 0 1.52.19 2.82 2.82 0 0 0 1.89-.55 2 2 0 0 0 .65-1.63q0-2-2.61-2a6.65 6.65 0 0 0 -.91.07c-.36.05-.67.11-.94.17l-.82-.49.43-5.57h5.94v1.63h-4.32l-.26 2.83.67-.11a6.45 6.45 0 0 1 .97-.1z" fill="#707070"/><path d="m155 231h115v52h-115z" fill="none" stroke="#707070" stroke-miterlimit="10" stroke-width=".5"/><path d="m204.76 261.6-1.14-3.17h-4.37l-1.11 3.17h-2l4.27-11.47h2l4.28 11.47zm-1.63-4.78-1.07-3.11q-.12-.32-.33-1c-.13-.44-.23-.77-.28-1a17.59 17.59 0 0 1 -.62 2.1l-1 3z" fill="#707070"/><path d="m215.35 258.5a2.89 2.89 0 0 1 -1.1 2.39 4.86 4.86 0 0 1 -3 .86 7.25 7.25 0 0 1 -3.17-.6v-1.76a8.77 8.77 0 0 0 1.66.57 6.55 6.55 0 0 0 1.63.22 2.55 2.55 0 0 0 1.64-.43 1.45 1.45 0 0 0 0-2.21 7.24 7.24 0 0 0 -2-1.06 5.3 5.3 0 0 1 -2.2-1.44 3.08 3.08 0 0 1 -.64-2 2.76 2.76 0 0 1 1-2.25 4.27 4.27 0 0 1 2.73-.82 8.06 8.06 0 0 1 3.27.72l-.6 1.52a7.24 7.24 0 0 0 -2.72-.64 2.09 2.09 0 0 0 -1.37.4 1.3 1.3 0 0 0 -.47 1 1.41 1.41 0 0 0 .19.76 1.88 1.88 0 0 0 .62.6 9.34 9.34 0 0 0 1.54.74 8.61 8.61 0 0 1 1.85 1 2.94 2.94 0 0 1 .86 1 3.13 3.13 0 0 1 .28 1.43z" fill="#707070"/><path d="m220.94 256.73q0-6.71 5.46-6.7a6.75 6.75 0 0 1 1.46.13v1.53a5.21 5.21 0 0 0 -1.38-.17 3.64 3.64 0 0 0 -2.76 1 4.86 4.86 0 0 0 -1 3.16h.1a2.5 2.5 0 0 1 1-1 3.32 3.32 0 0 1 1.56-.35 3.09 3.09 0 0 1 2.42 1 3.66 3.66 0 0 1 .87 2.58 3.91 3.91 0 0 1 -1 2.84 3.62 3.62 0 0 1 -2.74 1 3.65 3.65 0 0 1 -3.53-2.3 6.78 6.78 0 0 1 -.46-2.72zm4 3.51a1.77 1.77 0 0 0 1.45-.61 2.66 2.66 0 0 0 .52-1.74 2.3 2.3 0 0 0 -.48-1.55 1.81 1.81 0 0 0 -1.45-.56 2.36 2.36 0 0 0 -1.09.25 2 2 0 0 0 -.79.7 1.63 1.63 0 0 0 -.29.9 2.87 2.87 0 0 0 .6 1.85 1.86 1.86 0 0 0 1.52.76z" fill="#707070"/><path d="m270.5 104.5h97.71" fill="none" stroke="#71c492" stroke-miterlimit="10" stroke-width="2"/><path d="m364.23 107.89 3.39-3.39-3.39-3.39h2.88l3.39 3.39-3.39 3.39z" fill="#71c492"/><path d="m485.5 104.5h97.71" fill="none" stroke="#71c492" stroke-miterlimit="10" stroke-width="2"/><path d="m579.23 107.89 3.39-3.39-3.39-3.39h2.88l3.39 3.39-3.39 3.39z" fill="#71c492"/><path d="m270.5 256.5h97.71" fill="none" stroke="#e27179" stroke-miterlimit="10" stroke-width="2"/><path d="m364.23 259.89 3.39-3.39-3.39-3.39h2.88l3.39 3.39-3.39 3.39z" fill="#e27179"/><path d="m485.5 256.5h97.71" fill="none" stroke="#e27179" stroke-miterlimit="10" stroke-width="2"/><path d="m579.23 259.89 3.39-3.39-3.39-3.39h2.88l3.39 3.39-3.39 3.39z" fill="#e27179"/><path d="m642.5 132.79v97.71" fill="none" stroke="#e27179" stroke-miterlimit="10" stroke-width="2"/><path d="m639.11 136.77 3.39-3.39 3.39 3.39v-2.88l-3.39-3.39-3.39 3.39z" fill="#e27179"/><path d="m212.5 130.5v97.71" fill="none" stroke="#e27179" stroke-miterlimit="10" stroke-width="2"/><path d="m209.11 224.23 3.39 3.39 3.39-3.39v2.88l-3.39 3.39-3.39-3.39z" fill="#e27179"/></svg>